<svg width="35" height="27" viewBox="0 0 35 27" fill="none" xmlns="http://www.w3.org/2000/svg">
<path d="M5.51091 23.6834H19.8268C19.5973 23.3182 19.3949 22.9423 19.2198 22.5557C19.0446 22.1691 18.9026 21.7664 18.7939 21.3475H5.25721C4.70149 21.3475 4.26959 21.216 3.96153 20.9529C3.65347 20.6897 3.49945 20.2951 3.49945 19.7688V7.65474C3.49945 7.12852 3.65347 6.73386 3.96153 6.47074C4.26959 6.20762 4.70149 6.07606 5.25721 6.07606H24.9189C25.4867 6.07606 25.9247 6.20762 26.2327 6.47074C26.5408 6.73386 26.6948 7.12852 26.6948 7.65474V11.2149C26.9123 11.1934 27.1297 11.1746 27.3472 11.1585C27.5646 11.1424 27.7821 11.1343 27.9996 11.1343C28.3861 11.1343 28.8211 11.1612 29.3043 11.2149V4.25572C29.3043 2.90256 28.9207 1.88769 28.1536 1.2111C27.3865 0.534506 26.2297 0.196213 24.6834 0.196213H5.51091C3.97663 0.196213 2.82289 0.534506 2.04972 1.2111C1.27654 1.88769 0.889954 2.90256 0.889954 4.25572V19.6238C0.889954 20.977 1.27654 21.9919 2.04972 22.6685C2.82289 23.3451 3.97663 23.6834 5.51091 23.6834ZM7.68549 14.7106H8.51907C8.78485 14.7106 8.97209 14.6649 9.08081 14.5736C9.18955 14.4823 9.24392 14.3186 9.24392 14.0823V13.3413C9.24392 13.105 9.18955 12.9412 9.08081 12.85C8.97209 12.7587 8.78485 12.713 8.51907 12.713H7.68549C7.41971 12.713 7.23245 12.7587 7.12371 12.85C7.01497 12.9412 6.9606 13.105 6.9606 13.3413V14.0823C6.9606 14.3186 7.01497 14.4823 7.12371 14.5736C7.23245 14.6649 7.41971 14.7106 7.68549 14.7106ZM7.68549 18.7862H8.51907C8.78485 18.7862 8.97209 18.7405 9.08081 18.6492C9.18955 18.558 9.24392 18.3942 9.24392 18.1579V17.4169C9.24392 17.1806 9.18955 17.0169 9.08081 16.9256C8.97209 16.8343 8.78485 16.7886 8.51907 16.7886H7.68549C7.41971 16.7886 7.23245 16.8343 7.12371 16.9256C7.01497 17.0169 6.9606 17.1806 6.9606 17.4169V18.1579C6.9606 18.3942 7.01497 18.558 7.12371 18.6492C7.23245 18.7405 7.41971 18.7862 7.68549 18.7862ZM21.6752 10.6349H22.5088C22.7746 10.6349 22.9618 10.5893 23.0705 10.498C23.1793 10.4067 23.2336 10.243 23.2336 10.0067V9.26568C23.2336 9.0294 23.1793 8.86562 23.0705 8.77434C22.9618 8.68306 22.7746 8.63743 22.5088 8.63743H21.6752C21.4094 8.63743 21.2222 8.68306 21.1134 8.77434C21.0047 8.86562 20.9504 9.0294 20.9504 9.26568V10.0067C20.9504 10.243 21.0047 10.4067 21.1134 10.498C21.2222 10.5893 21.4094 10.6349 21.6752 10.6349ZM17.018 10.6349H17.8516C18.1174 10.6349 18.3016 10.5893 18.4043 10.498C18.507 10.4067 18.5583 10.243 18.5583 10.0067V9.26568C18.5583 9.0294 18.507 8.86562 18.4043 8.77434C18.3016 8.68306 18.1174 8.63743 17.8516 8.63743H17.018C16.7401 8.63743 16.5499 8.68306 16.4472 8.77434C16.3445 8.86562 16.2931 9.0294 16.2931 9.26568V10.0067C16.2931 10.243 16.3445 10.4067 16.4472 10.498C16.5499 10.5893 16.7401 10.6349 17.018 10.6349ZM17.018 14.7106H17.8516C18.1174 14.7106 18.3016 14.6649 18.4043 14.5736C18.507 14.4823 18.5583 14.3186 18.5583 14.0823V13.3413C18.5583 13.105 18.507 12.9412 18.4043 12.85C18.3016 12.7587 18.1174 12.713 17.8516 12.713H17.018C16.7401 12.713 16.5499 12.7587 16.4472 12.85C16.3445 12.9412 16.2931 13.105 16.2931 13.3413V14.0823C16.2931 14.3186 16.3445 14.4823 16.4472 14.5736C16.5499 14.6649 16.7401 14.7106 17.018 14.7106ZM12.3427 10.6349H13.1763C13.4541 10.6349 13.6444 10.5893 13.7471 10.498C13.8498 10.4067 13.9011 10.243 13.9011 10.0067V9.26568C13.9011 9.0294 13.8498 8.86562 13.7471 8.77434C13.6444 8.68306 13.4541 8.63743 13.1763 8.63743H12.3427C12.0769 8.63743 11.8927 8.68306 11.79 8.77434C11.6873 8.86562 11.6359 9.0294 11.6359 9.26568V10.0067C11.6359 10.243 11.6873 10.4067 11.79 10.498C11.8927 10.5893 12.0769 10.6349 12.3427 10.6349ZM12.3427 14.7106H13.1763C13.4541 14.7106 13.6444 14.6649 13.7471 14.5736C13.8498 14.4823 13.9011 14.3186 13.9011 14.0823V13.3413C13.9011 13.105 13.8498 12.9412 13.7471 12.85C13.6444 12.7587 13.4541 12.713 13.1763 12.713H12.3427C12.0769 12.713 11.8927 12.7587 11.79 12.85C11.6873 12.9412 11.6359 13.105 11.6359 13.3413V14.0823C11.6359 14.3186 11.6873 14.4823 11.79 14.5736C11.8927 14.6649 12.0769 14.7106 12.3427 14.7106ZM17.018 18.7862H17.8516C18.1174 18.7862 18.3016 18.7405 18.4043 18.6492C18.507 18.558 18.5583 18.3942 18.5583 18.1579V17.4169C18.5583 17.1806 18.507 17.0169 18.4043 16.9256C18.3016 16.8343 18.1174 16.7886 17.8516 16.7886H17.018C16.7401 16.7886 16.5499 16.8343 16.4472 16.9256C16.3445 17.0169 16.2931 17.1806 16.2931 17.4169V18.1579C16.2931 18.3942 16.3445 18.558 16.4472 18.6492C16.5499 18.7405 16.7401 18.7862 17.018 18.7862ZM12.3427 18.7862H13.1763C13.4541 18.7862 13.6444 18.7405 13.7471 18.6492C13.8498 18.558 13.9011 18.3942 13.9011 18.1579V17.4169C13.9011 17.1806 13.8498 17.0169 13.7471 16.9256C13.6444 16.8343 13.4541 16.7886 13.1763 16.7886H12.3427C12.0769 16.7886 11.8927 16.8343 11.79 16.9256C11.6873 17.0169 11.6359 17.1806 11.6359 17.4169V18.1579C11.6359 18.3942 11.6873 18.558 11.79 18.6492C11.8927 18.7405 12.0769 18.7862 12.3427 18.7862Z" fill="#313131"/>
<path d="M27.3194 26.0192C28.5374 26.0192 29.6604 25.7115 30.6884 25.0962C31.7165 24.4808 32.5405 23.6613 33.1607 22.6376C33.7809 21.6139 34.091 20.4867 34.091 19.256C34.091 18.0141 33.7837 16.8814 33.1691 15.8577C32.5545 14.834 31.736 14.0172 30.7136 13.4075C29.6911 12.7977 28.5597 12.4929 27.3194 12.4929C26.0903 12.4929 24.9645 12.7977 23.942 13.4075C22.9196 14.0172 22.1011 14.834 21.4865 15.8577C20.8719 16.8814 20.5646 18.0141 20.5646 19.256C20.5646 20.4979 20.8719 21.6307 21.4865 22.6544C22.1011 23.6781 22.9196 24.4948 23.942 25.1046C24.9645 25.7143 26.0903 26.0192 27.3194 26.0192Z" fill="#313131"/>
</svg>
