<svg width="24" height="24" viewBox="0 0 24 24" fill="none" xmlns="http://www.w3.org/2000/svg">
<path d="M11.9926 24C13.6371 24 15.1827 23.6877 16.6291 23.0632C18.0755 22.4387 19.3511 21.5713 20.4557 20.461C21.5604 19.3507 22.4272 18.0719 23.0563 16.6245C23.6854 15.1772 24 13.6357 24 12C24 10.3643 23.6854 8.82281 23.0563 7.37545C22.4272 5.92812 21.5579 4.64931 20.4483 3.53904C19.3387 2.42874 18.0607 1.56133 16.6142 0.936812C15.1678 0.312271 13.6223 0 11.9777 0C10.343 0 8.80248 0.312271 7.35604 0.936812C5.90961 1.56133 4.63654 2.42874 3.53683 3.53904C2.43714 4.64931 1.57275 5.92812 0.943651 7.37545C0.31455 8.82281 0 10.3643 0 12C0 13.6357 0.31455 15.1772 0.943651 16.6245C1.57275 18.0719 2.43962 19.3507 3.54426 20.461C4.64891 21.5713 5.92446 22.4387 7.3709 23.0632C8.81734 23.6877 10.3579 24 11.9926 24ZM11.9926 21.7398C10.6452 21.7398 9.38451 21.4895 8.21053 20.9889C7.03652 20.4882 6.00618 19.7918 5.11949 18.8996C4.23281 18.0074 3.53932 16.9715 3.03901 15.7918C2.53871 14.6121 2.28855 13.3482 2.28855 12C2.28855 10.6518 2.53623 9.38786 3.03158 8.20817C3.52694 7.0285 4.21796 5.99257 5.10464 5.10036C5.99132 4.20817 7.02166 3.51177 8.19565 3.01115C9.36965 2.51054 10.6303 2.26023 11.9777 2.26023C13.335 2.26023 14.6006 2.51054 15.7746 3.01115C16.9486 3.51177 17.9814 4.20817 18.8731 5.10036C19.7647 5.99257 20.4631 7.0285 20.9684 8.20817C21.4737 9.38786 21.7263 10.6518 21.7263 12C21.7263 13.3482 21.4762 14.6121 20.9758 15.7918C20.4755 16.9715 19.782 18.0074 18.8953 18.8996C18.0087 19.7918 16.9758 20.4882 15.7969 20.9889C14.6179 21.4895 13.3498 21.7398 11.9926 21.7398Z" fill="#27AAE1"/>
<path d="M9.98638 18.4387H14.7121C14.9796 18.4387 15.205 18.3519 15.3883 18.1784C15.5715 18.005 15.6632 17.7844 15.6632 17.5167C15.6632 17.259 15.5715 17.0409 15.3883 16.8624C15.205 16.684 14.9796 16.5948 14.7121 16.5948H13.4043V11.0335C13.4043 10.6667 13.3152 10.3742 13.1369 10.1561C12.9585 9.93803 12.7059 9.82899 12.379 9.82899H10.2093C9.94182 9.82899 9.71395 9.91821 9.52572 10.0966C9.33747 10.2751 9.24335 10.4932 9.24335 10.7509C9.24335 11.0186 9.33747 11.2416 9.52572 11.4201C9.71395 11.5985 9.94182 11.6877 10.2093 11.6877H11.2941V16.5948H9.98638C9.7189 16.5948 9.49104 16.684 9.30279 16.8624C9.11456 17.0409 9.02045 17.259 9.02045 17.5167C9.02045 17.7844 9.11456 18.005 9.30279 18.1784C9.49104 18.3519 9.7189 18.4387 9.98638 18.4387ZM11.8737 8.01487C12.3393 8.01487 12.7307 7.8513 13.0477 7.52415C13.3647 7.19701 13.5232 6.80049 13.5232 6.33457C13.5232 5.86865 13.3647 5.47212 13.0477 5.14496C12.7307 4.81783 12.3393 4.65427 11.8737 4.65427C11.4081 4.65427 11.0143 4.81783 10.6923 5.14496C10.3703 5.47212 10.2093 5.86865 10.2093 6.33457C10.2093 6.80049 10.3703 7.19701 10.6923 7.52415C11.0143 7.8513 11.4081 8.01487 11.8737 8.01487Z" fill="#27AAE1"/>
</svg>
