<svg width="31" height="30" viewBox="0 0 31 30" fill="none" xmlns="http://www.w3.org/2000/svg">
<path d="M3.90112 13.6148H10.8892C11.9695 13.6148 12.7797 13.3381 13.3198 12.7848C13.86 12.2316 14.13 11.4017 14.13 10.2951V3.45354C14.13 2.34701 13.86 1.51712 13.3198 0.963873C12.7797 0.410595 11.9695 0.133957 10.8892 0.133957H3.90112C2.82085 0.133957 2.01065 0.410595 1.47051 0.963873C0.930356 1.51712 0.660278 2.34701 0.660278 3.45354V10.2951C0.660278 11.4017 0.930356 12.2316 1.47051 12.7848C2.01065 13.3381 2.82085 13.6148 3.90112 13.6148ZM3.9214 11.0643C3.43525 11.0643 3.19217 10.8079 3.19217 10.2951V3.43331C3.19217 2.93403 3.43525 2.68439 3.9214 2.68439H10.8487C11.3483 2.68439 11.5981 2.93403 11.5981 3.43331V10.2951C11.5981 10.8079 11.3483 11.0643 10.8487 11.0643H3.9214ZM19.9433 13.6148H26.9314C28.0252 13.6148 28.8388 13.3381 29.3722 12.7848C29.9055 12.2316 30.1722 11.4017 30.1722 10.2951V3.45354C30.1722 2.34701 29.9055 1.51712 29.3722 0.963873C28.8388 0.410595 28.0252 0.133957 26.9314 0.133957H19.9433C18.863 0.133957 18.0528 0.410595 17.5127 0.963873C16.9725 1.51712 16.7025 2.34701 16.7025 3.45354V10.2951C16.7025 11.4017 16.9725 12.2316 17.5127 12.7848C18.0528 13.3381 18.863 13.6148 19.9433 13.6148ZM19.9838 11.0643C19.4842 11.0643 19.2344 10.8079 19.2344 10.2951V3.43331C19.2344 2.93403 19.4842 2.68439 19.9838 2.68439H26.9111C27.3973 2.68439 27.6403 2.93403 27.6403 3.43331V10.2951C27.6403 10.8079 27.3973 11.0643 26.9111 11.0643H19.9838ZM3.90112 29.6459H10.8892C11.9695 29.6459 12.7797 29.3727 13.3198 28.8261C13.86 28.2796 14.13 27.4464 14.13 26.3263V19.4847C14.13 18.3782 13.86 17.5517 13.3198 17.0052C12.7797 16.4586 11.9695 16.1854 10.8892 16.1854H3.90112C2.82085 16.1854 2.01065 16.4586 1.47051 17.0052C0.930356 17.5517 0.660278 18.3782 0.660278 19.4847V26.3263C0.660278 27.4464 0.930356 28.2796 1.47051 28.8261C2.01065 29.3727 2.82085 29.6459 3.90112 29.6459ZM3.9214 27.0955C3.43525 27.0955 3.19217 26.8459 3.19217 26.3466V19.4847C3.19217 18.9719 3.43525 18.7155 3.9214 18.7155H10.8487C11.3483 18.7155 11.5981 18.9719 11.5981 19.4847V26.3466C11.5981 26.8459 11.3483 27.0955 10.8487 27.0955H3.9214ZM19.9433 29.6459H26.9314C28.0252 29.6459 28.8388 29.3727 29.3722 28.8261C29.9055 28.2796 30.1722 27.4464 30.1722 26.3263V19.4847C30.1722 18.3782 29.9055 17.5517 29.3722 17.0052C28.8388 16.4586 28.0252 16.1854 26.9314 16.1854H19.9433C18.863 16.1854 18.0528 16.4586 17.5127 17.0052C16.9725 17.5517 16.7025 18.3782 16.7025 19.4847V26.3263C16.7025 27.4464 16.9725 28.2796 17.5127 28.8261C18.0528 29.3727 18.863 29.6459 19.9433 29.6459ZM19.9838 27.0955C19.4842 27.0955 19.2344 26.8459 19.2344 26.3466V19.4847C19.2344 18.9719 19.4842 18.7155 19.9838 18.7155H26.9111C27.3973 18.7155 27.6403 18.9719 27.6403 19.4847V26.3466C27.6403 26.8459 27.3973 27.0955 26.9111 27.0955H19.9838Z" fill="#EF4136"/>
</svg>
