<svg width="36" height="26" viewBox="0 0 36 26" fill="none" xmlns="http://www.w3.org/2000/svg">
<path d="M4.71925 24.0985H22.436C22.1813 23.7483 21.9505 23.3822 21.7435 23.0001C21.5366 22.6181 21.3588 22.2148 21.2103 21.7904H16.5782V17.1264H20.9715C21.1625 16.3305 21.4756 15.5664 21.9107 14.8342H16.5782V10.1543H27.8958V10.8547C28.2991 10.8123 28.6838 10.791 29.0499 10.791C29.416 10.791 29.7954 10.8123 30.1881 10.8547V4.90137C30.1881 3.56427 29.8511 2.56144 29.1772 1.89288C28.5034 1.22432 27.4873 0.890038 26.1289 0.890038H4.71925C3.36091 0.890038 2.34481 1.22432 1.67095 1.89288C0.997086 2.56144 0.660156 3.56427 0.660156 4.90137V20.0871C0.660156 21.4242 0.997086 22.4271 1.67095 23.0956C2.34481 23.7642 3.36091 24.0985 4.71925 24.0985ZM2.95236 14.8342V10.1543H14.286V14.8342H2.95236ZM2.95236 7.86211V5.0128C2.95236 4.40792 3.10888 3.95426 3.42193 3.65181C3.73498 3.34937 4.17803 3.19815 4.7511 3.19815H14.286V7.86211H2.95236ZM2.95236 19.9757V17.1264H14.286V21.7904H4.7511C4.17803 21.7904 3.73498 21.6365 3.42193 21.3287C3.10888 21.021 2.95236 20.57 2.95236 19.9757ZM16.5782 7.86211V3.19815H26.0971C26.6702 3.19815 27.1132 3.34937 27.4263 3.65181C27.7393 3.95426 27.8958 4.40792 27.8958 5.0128V7.86211H16.5782Z" fill="#313131"/>
<path d="M29.026 25.4833C30.1828 25.4833 31.2493 25.1914 32.2256 24.6078C33.2018 24.0241 33.9844 23.2468 34.5734 22.2758C35.1624 21.3048 35.4569 20.2356 35.4569 19.0683C35.4569 17.8904 35.165 16.8159 34.5812 15.8449C33.9977 14.8739 33.2204 14.0993 32.2494 13.5209C31.2783 12.9425 30.2038 12.6534 29.026 12.6534C27.8586 12.6534 26.7895 12.9425 25.8185 13.5209C24.8475 14.0993 24.0702 14.8739 23.4865 15.8449C22.9029 16.8159 22.611 17.8904 22.611 19.0683C22.611 20.2462 22.9029 21.3207 23.4865 22.2917C24.0702 23.2627 24.8475 24.0374 25.8185 24.6157C26.7895 25.1941 27.8586 25.4833 29.026 25.4833ZM29.026 20.0871C28.7501 20.0871 28.5113 19.9862 28.3097 19.7846C28.108 19.583 28.0072 19.3442 28.0072 19.0683C28.0072 18.7924 28.108 18.5536 28.3097 18.352C28.5113 18.1504 28.7501 18.0496 29.026 18.0496C29.3019 18.0496 29.5407 18.1504 29.7423 18.352C29.9439 18.5536 30.0447 18.7924 30.0447 19.0683C30.0447 19.3442 29.9439 19.583 29.7423 19.7846C29.5407 19.9862 29.3019 20.0871 29.026 20.0871ZM25.4763 20.0871C25.2003 20.0871 24.9642 19.9862 24.7679 19.7846C24.5716 19.583 24.4734 19.3442 24.4734 19.0683C24.4734 18.7924 24.5716 18.5536 24.7679 18.352C24.9642 18.1504 25.2003 18.0496 25.4763 18.0496C25.7628 18.0496 26.0042 18.1504 26.2005 18.352C26.3969 18.5536 26.495 18.7924 26.495 19.0683C26.495 19.3442 26.3969 19.583 26.2005 19.7846C26.0042 19.9862 25.7628 20.0871 25.4763 20.0871ZM32.5597 20.0871C32.2839 20.0871 32.0452 19.9862 31.8435 19.7846C31.6418 19.583 31.541 19.3442 31.541 19.0683C31.541 18.7924 31.6418 18.5536 31.8435 18.352C32.0452 18.1504 32.2839 18.0496 32.5597 18.0496C32.8357 18.0496 33.0745 18.1504 33.2759 18.352C33.4776 18.5536 33.5731 18.7924 33.5625 19.0683C33.5625 19.3442 33.4644 19.583 33.2681 19.7846C33.0719 19.9862 32.8357 20.0871 32.5597 20.0871Z" fill="#313131"/>
</svg>
