<svg width="35" height="30" viewBox="0 0 35 30" fill="none" xmlns="http://www.w3.org/2000/svg">
<path d="M17.646 16.4657C18.1925 16.4657 18.7524 16.3978 19.3257 16.2621C19.8991 16.1264 20.5233 15.9128 21.1984 15.6212L33.5273 10.3431C33.9774 10.1521 34.3122 9.8857 34.5317 9.54389C34.7514 9.20206 34.8612 8.84014 34.8612 8.45812C34.8612 8.07609 34.7514 7.71164 34.5317 7.36479C34.3122 7.01794 33.9774 6.74901 33.5273 6.558L21.1984 1.27994C20.5233 0.998439 19.8991 0.787313 19.3257 0.646563C18.7524 0.505813 18.1925 0.43544 17.646 0.43544C17.0995 0.43544 16.5396 0.505813 15.9662 0.646563C15.3929 0.787313 14.7687 0.998439 14.0936 1.27994L1.76477 6.558C1.31469 6.74901 0.979808 7.01794 0.760124 7.36479C0.540443 7.71164 0.430603 8.07609 0.430603 8.45812C0.430603 8.84014 0.540443 9.20206 0.760124 9.54389C0.979808 9.8857 1.31469 10.1521 1.76477 10.3431L14.0936 15.6212C14.7687 15.9128 15.3929 16.1264 15.9662 16.2621C16.5396 16.3978 17.0995 16.4657 17.646 16.4657ZM17.646 14.3243C17.2388 14.3243 16.8209 14.2715 16.3922 14.166C15.9636 14.0604 15.4867 13.892 14.9616 13.6608L3.58112 8.82003C3.37752 8.72956 3.27572 8.60892 3.27572 8.45812C3.27572 8.29726 3.37752 8.17158 3.58112 8.08109L14.9616 3.24035C15.4867 3.00913 15.9636 2.84074 16.3922 2.73517C16.8209 2.62961 17.2388 2.57683 17.646 2.57683C18.0639 2.57683 18.4845 2.62961 18.9078 2.73517C19.3311 2.84074 19.8053 3.00913 20.3304 3.24035L31.7108 8.08109C31.9252 8.17158 32.0324 8.29726 32.0324 8.45812C32.0324 8.60892 31.9252 8.72956 31.7108 8.82003L20.3304 13.6608C19.8053 13.892 19.3311 14.0604 18.9078 14.166C18.4845 14.2715 18.0639 14.3243 17.646 14.3243ZM5.18856 17.3403C5.18856 18.3055 5.48325 19.1977 6.07262 20.0171C6.662 20.8364 7.50589 21.5553 8.60429 22.1736C9.70269 22.7918 11.0154 23.2719 12.5425 23.6137C14.0695 23.9555 15.7707 24.1264 17.646 24.1264C19.5213 24.1264 21.2225 23.9555 22.7495 23.6137C24.2766 23.2719 25.5893 22.7918 26.6877 22.1736C27.7861 21.5553 28.63 20.8364 29.2194 20.0171C29.8087 19.1977 30.1034 18.3055 30.1034 17.3403V11.0368H27.7888V17.3403C27.7888 17.9938 27.5477 18.6096 27.0654 19.1877C26.5832 19.7658 25.8974 20.2709 25.0079 20.7032C24.1185 21.1355 23.0523 21.4748 21.8092 21.7212C20.5661 21.9675 19.1784 22.0906 17.646 22.0906C16.1243 22.0906 14.7393 21.9675 13.4908 21.7212C12.2424 21.4748 11.1735 21.1355 10.2841 20.7032C9.3946 20.2709 8.70878 19.7658 8.22657 19.1877C7.74433 18.6096 7.50322 17.9938 7.50322 17.3403V11.0368H5.18856V17.3403ZM17.7103 9.84548C18.3747 9.84548 18.9962 9.7173 19.5749 9.46094C20.1535 9.20458 20.4429 8.87031 20.4429 8.45812C20.4429 8.04592 20.1535 7.71415 19.5749 7.46282C18.9962 7.21148 18.3747 7.08581 17.7103 7.08581C17.0352 7.08581 16.4083 7.21148 15.8296 7.46282C15.2509 7.71415 14.9616 8.04592 14.9616 8.45812C14.9616 8.87031 15.2509 9.20458 15.8296 9.46094C16.4083 9.7173 17.0352 9.84548 17.7103 9.84548ZM10.2037 13.0274L17.4853 9.30259L16.6976 7.93031L8.35515 12.1075L10.2037 13.0274ZM8.35515 24.8352H10.2037V13.0274L8.35515 12.1829V24.8352ZM7.35854 25.2122V28.3188C7.35854 28.8013 7.51661 29.1934 7.83275 29.495C8.14886 29.7966 8.56947 29.9474 9.09456 29.9474H9.44819C9.97328 29.9474 10.3939 29.7966 10.71 29.495C11.0261 29.1934 11.1842 28.8013 11.1842 28.3188V25.2122C11.1842 24.7297 11.0261 24.3376 10.71 24.036C10.3939 23.7344 9.97328 23.5836 9.44819 23.5836H9.09456C8.56947 23.5836 8.14886 23.7344 7.83275 24.036C7.51661 24.3376 7.35854 24.7297 7.35854 25.2122Z" fill="#313131"/>
</svg>
